RBDS022runT35_grf
version=1
nRows=27
nColumns=19
inDegrees=no
endheader
time	ground_force_r_vx	ground_force_r_vy	ground_force_r_vz	ground_force_r_px	ground_force_r_py	ground_force_r_pz	ground_force_r_mx	ground_force_r_my	ground_force_r_mz	ground_force_l_vx	ground_force_l_vy	ground_force_l_vz	ground_force_l_px	ground_force_l_py	ground_force_l_pz	ground_force_l_mx	ground_force_l_my	ground_force_l_mz
     14.99900000	      0.00000000	      0.00000000	      0.00000000	      0.00000000	      0.00000000	      0.00000000	      0.00000000	      0.00000000	      0.00000000	     37.04264297	   1515.28487181	     52.46461229	      2.13217360	      0.00000000	      0.96623056	      0.00000000	      5.91086578	     -0.00000000
     15.00000000	      0.00000000	      0.00000000	      0.00000000	      0.00000000	      0.00000000	      0.00000000	      0.00000000	      0.00000000	      0.00000000	     43.09954077	   1505.31024311	     51.81441120	      2.12915986	      0.00000000	      0.96618404	      0.00000000	      5.93756602	     -0.00000000
     15.00100000	      0.00000000	      0.00000000	      0.00000000	      0.00000000	      0.00000000	      0.00000000	      0.00000000	      0.00000000	      0.00000000	     49.02722745	   1494.15269294	     51.02244196	      2.12610988	      0.00000000	      0.96614530	      0.00000000	      5.94403534	     -0.00000000
     15.00200000	      0.00000000	      0.00000000	      0.00000000	      0.00000000	      0.00000000	      0.00000000	      0.00000000	      0.00000000	      0.00000000	     54.95491414	   1482.99514277	     50.23047272	      2.12305991	      0.00000000	      0.96610657	      0.00000000	      5.95050466	     -0.00000000
     15.00300000	      0.00000000	      0.00000000	      0.00000000	      0.00000000	      0.00000000	      0.00000000	      0.00000000	      0.00000000	      0.00000000	     60.88260082	   1471.83759259	     49.43850349	      2.12000993	      0.00000000	      0.96606784	      0.00000000	      5.95697398	     -0.00000000
     15.00400000	      0.00000000	      0.00000000	      0.00000000	      0.00000000	      0.00000000	      0.00000000	      0.00000000	      0.00000000	      0.00000000	     66.68111549	   1459.93194870	     48.55760716	      2.11693779	      0.00000000	      0.96603436	      0.00000000	      5.94965028	     -0.00000000
     15.00500000	      0.00000000	      0.00000000	      0.00000000	      0.00000000	      0.00000000	      0.00000000	      0.00000000	      0.00000000	      0.00000000	     72.41504416	   1447.65225794	     47.63224729	      2.11385458	      0.00000000	      0.96600350	      0.00000000	      5.93543008	     -0.00000000
     15.00600000	      0.00000000	      0.00000000	      0.00000000	      0.00000000	      0.00000000	      0.00000000	      0.00000000	      0.00000000	      0.00000000	     78.14897282	   1435.37256719	     46.70688742	      2.11077137	      0.00000000	      0.96597264	      0.00000000	      5.92120988	     -0.00000000
     15.00700000	      0.00000000	      0.00000000	      0.00000000	      0.00000000	      0.00000000	      0.00000000	      0.00000000	      0.00000000	      0.00000000	     83.79701127	   1422.74065796	     45.74153391	      2.10767830	      0.00000000	      0.96594432	      0.00000000	      5.90012876	     -0.00000000
     15.00800000	      0.00000000	      0.00000000	      0.00000000	      0.00000000	      0.00000000	      0.00000000	      0.00000000	      0.00000000	      0.00000000	     89.27326930	   1409.40431179	     44.69619312	      2.10456550	      0.00000000	      0.96592110	      0.00000000	      5.86532579	     -0.00000000
     15.00900000	      0.00000000	      0.00000000	      0.00000000	      0.00000000	      0.00000000	      0.00000000	      0.00000000	      0.00000000	      0.00000000	     94.74952733	   1396.06796561	     43.65085234	      2.10145270	      0.00000000	      0.96589788	      0.00000000	      5.83052283	     -0.00000000
     15.01000000	      0.00000000	      0.00000000	      0.00000000	      0.00000000	      0.00000000	      0.00000000	      0.00000000	      0.00000000	      0.00000000	    100.22578536	   1382.73161944	     42.60551155	      2.09833990	      0.00000000	      0.96587465	      0.00000000	      5.79571986	     -0.00000000
     15.01100000	      0.00000000	      0.00000000	      0.00000000	      0.00000000	      0.00000000	      0.00000000	      0.00000000	      0.00000000	      0.00000000	    105.38195908	   1368.40954074	     41.45807862	      2.09520183	      0.00000000	      0.96585856	      0.00000000	      5.74099633	     -0.00000000
     15.01200000	      0.00000000	      0.00000000	      0.00000000	      0.00000000	      0.00000000	      0.00000000	      0.00000000	      0.00000000	      0.00000000	    110.53813281	   1354.08746203	     40.31064569	      2.09206375	      0.00000000	      0.96584246	      0.00000000	      5.68627279	     -0.00000000
     15.01300000	      0.00000000	      0.00000000	      0.00000000	      0.00000000	      0.00000000	      0.00000000	      0.00000000	      0.00000000	      0.00000000	    115.69430654	   1339.76538333	     39.16321276	      2.08892567	      0.00000000	      0.96582637	      0.00000000	      5.63154925	     -0.00000000
     15.01400000	      0.00000000	      0.00000000	      0.00000000	      0.00000000	      0.00000000	      0.00000000	      0.00000000	      0.00000000	      0.00000000	    120.59717525	   1324.83753190	     37.96212406	      2.08577404	      0.00000000	      0.96581455	      0.00000000	      5.56433852	     -0.00000000
     15.01500000	      0.00000000	      0.00000000	      0.00000000	      0.00000000	      0.00000000	      0.00000000	      0.00000000	      0.00000000	      0.00000000	    125.37339146	   1309.60679410	     36.73420749	      2.08261564	      0.00000000	      0.96580487	      0.00000000	      5.49088419	     -0.00000000
     15.01600000	      0.00000000	      0.00000000	      0.00000000	      0.00000000	      0.00000000	      0.00000000	      0.00000000	      0.00000000	      0.00000000	    130.14960767	   1294.37605630	     35.50629091	      2.07945723	      0.00000000	      0.96579518	      0.00000000	      5.41742986	     -0.00000000
     15.01700000	      0.00000000	      0.00000000	      0.00000000	      0.00000000	      0.00000000	      0.00000000	      0.00000000	      0.00000000	      0.00000000	    134.78045341	   1278.87036933	     34.25968428	      2.07629390	      0.00000000	      0.96578735	      0.00000000	      5.33828980	     -0.00000000
     15.01800000	      0.00000000	      0.00000000	      0.00000000	      0.00000000	      0.00000000	      0.00000000	      0.00000000	      0.00000000	      0.00000000	    139.12055821	   1262.81478404	     32.97569755	      2.07312069	      0.00000000	      0.96578322	      0.00000000	      5.24777827	     -0.00000000
     15.01900000	      0.00000000	      0.00000000	      0.00000000	      0.00000000	      0.00000000	      0.00000000	      0.00000000	      0.00000000	      0.00000000	    143.46066300	   1246.75919875	     31.69171081	      2.06994749	      0.00000000	      0.96577909	      0.00000000	      5.15726673	     -0.00000000
     15.02000000	      0.00000000	      0.00000000	      0.00000000	      0.00000000	      0.00000000	      0.00000000	      0.00000000	      0.00000000	      0.00000000	    147.80076780	   1230.70361345	     30.40772407	      2.06677428	      0.00000000	      0.96577496	      0.00000000	      5.06675520	     -0.00000000
     15.02100000	      0.00000000	      0.00000000	      0.00000000	      0.00000000	      0.00000000	      0.00000000	      0.00000000	      0.00000000	      0.00000000	    151.65359074	   1213.91410431	     29.09387276	      2.06359228	      0.00000000	      0.96577546	      0.00000000	      4.96128682	     -0.00000000
     15.02200000	      0.00000000	      0.00000000	      0.00000000	      0.00000000	      0.00000000	      0.00000000	      0.00000000	      0.00000000	      0.00000000	    155.50641368	   1197.12459516	     27.78002146	      2.06041028	      0.00000000	      0.96577595	      0.00000000	      4.85581843	     -0.00000000
     15.02300000	      0.00000000	      0.00000000	      0.00000000	      0.00000000	      0.00000000	      0.00000000	      0.00000000	      0.00000000	      0.00000000	    159.35923662	   1180.33508601	     26.46617015	      2.05722827	      0.00000000	      0.96577645	      0.00000000	      4.75035005	     -0.00000000
     15.02400000	      0.00000000	      0.00000000	      0.00000000	      0.00000000	      0.00000000	      0.00000000	      0.00000000	      0.00000000	      0.00000000	    162.85727359	   1163.12171383	     25.15037278	      2.05404463	      0.00000000	      0.96577941	      0.00000000	      4.63655054	     -0.00000000
     15.02500000	      0.00000000	      0.00000000	      0.00000000	      0.00000000	      0.00000000	      0.00000000	      0.00000000	      0.00000000	      0.00000000	    166.17791757	   1145.69641013	     23.83360238	      2.05086017	      0.00000000	      0.96578360	      0.00000000	      4.51858548	     -0.00000000
